<svg width="16" height="16" xmlns="http://www.w3.org/2000/svg" xmlns:xlink="http://www.w3.org/1999/xlink" version="1.1" x="0px" y="0px" viewBox="100 100 880 880" style="enable-background:new 0 0 1024 1024;" xml:space="preserve"><path d="M883.8,172.9c0-0.8-0.1-1.4-0.2-1.7C883.9,171.8,884.2,174,883.8,172.9z"/><path d="M883.8,608.5"/><g><g><g><path d="M242,348c0-42.6,0-85.2,0-127.8c0-19.7,0-39.4,0-59.1c0-1.4,0-2.9,0-4.3c0,0.2,0.1-2.7,0.2-2.7     c-0.1,0.9-0.2,1.8-0.3,2.7c0.2-0.9,0.4-1.7,0.6-2.6c0.1-0.3,1.1-3.8,1.2-3.7c0.6,0.2-2.1,3.9-0.4,1.2c0.7-1.1,1.3-2.2,1.9-3.3     c2.1-3.8-3.1,3,0,0c0.6-0.6,1.1-1.3,1.7-1.9c0.6-0.6,1.2-1.2,1.9-1.7c1.6-1.4,1.3-1.1-1,0.7c-0.1-0.2,5.5-3.4,5.6-3.3     c-0.8,0.3-1.6,0.6-2.4,1c0.8-0.3,1.6-0.6,2.5-0.9c0.8-0.3,1.7-0.5,2.6-0.7c0.4-0.1,0.9-0.2,1.3-0.3c2.2-0.4,1.8-0.4-1.3,0.1     c0.1-0.3,3-0.2,3.4-0.2c0.3,0,0.5,0,0.8,0c0.5,0,1.1,0,1.6,0c25.2-0.1,50.4,0,75.5,0c50.4,0,100.7,0,151.1,0     c57.9,0,115.7,0,173.6,0c47.5,0,95.1,0,142.6,0c20.2,0,40.4-0.3,60.6,0c0.6,0,4-0.2,4.1,0.2c-0.9-0.1-1.7-0.2-2.6-0.3     c0.9,0.2,1.8,0.3,2.6,0.6c0.9,0.2,1.7,0.5,2.6,0.7c0.4,0.1,0.8,0.3,1.3,0.4c2,0.8,1.7,0.6-1.1-0.5c0.1-0.2,3.2,1.7,3.5,1.9     c0.7,0.4,1.5,1,2.2,1.4c1.7,1.3,1.4,1-1-0.7c0.7,0.6,1.3,1.1,1.9,1.7c0.7,0.7,1.4,1.7,2.2,2.4c2,1.5-2.4-4-0.4-0.5     c0.6,1.1,1.3,2.3,2,3.3c2.1,3.3-0.8-1.2-0.4-1.2c0.2,0,1.2,3.5,1.2,3.7c0.1,0.4,0.2,0.9,0.3,1.3c0.4,2.2,0.4,1.7,0-1.3     c0.3,0.1,0.2,3.9,0.2,4.1c0,1.3,0,2.7,0,4c0,9.1,0,18.2,0,27.2c0,38.3,0,76.6,0,114.9c0,54.5,0,109,0,163.6     c0,57.4,0,114.8,0,172.1c0,48,0,95.9,0,143.9c0,25.2,0,50.5,0,75.7c0,1.2,0,2.5,0,3.7c0,0.5,0.1-2,0,1.4c0,0.5-0.1,0.9-0.1,1.4     c-0.2,2.2-0.2,1.8,0.2-1.3c0.1,0-1.4,6.3-1.8,6.5c0.3-0.8,0.6-1.5,1-2.3c-0.4,0.8-0.8,1.6-1.2,2.4c-0.4,0.8-0.9,1.5-1.4,2.3     c-0.2,0.4-0.5,0.7-0.7,1.1c-1.3,1.7-1,1.4,0.7-0.9c0.2,0.6-3.3,3.4-3.7,3.8c-1.9,2,0.7,0.1,1-0.6c-0.2,0.7-2.7,1.8-3.3,2.2     c-1,0.6-2,1-2.9,1.6c-2.4,1.4,4.7-1.4,0.4-0.2c-1.3,0.3-2.6,0.7-3.9,1.1c-3.9,1.2,1.4-0.3,1.3,0c-0.2,0.4-3.7,0.2-4.2,0.2     c-5.7,0.1-11.3,0-17,0c-36.4,0-72.8,0-109.2,0c-55.1,0-110.3,0-165.4,0c-55.9,0-111.9,0-167.8,0c-39.8,0-79.7,0-119.5,0     c-8.3,0-16.5,0-24.8,0c-0.5,0-1,0-1.4,0c-0.5,0-0.8,0-1.4,0c-0.5,0-0.9-0.1-1.4-0.1c-2.2-0.2-1.8-0.2,1.3,0.2     c0,0.1-2.8-0.6-2.6-0.6c-0.4-0.1-3.7-0.9-3.8-1.2c0,0.1,4,2.3,0.6,0.1c-0.9-0.6-1.9-1.2-2.8-1.7c-1.8-1.2-1.5-1,0.9,0.8     c-0.7-0.6-1.3-1.1-2-1.7c-0.6-0.6-1.3-1.2-1.9-1.8c-0.3-0.3-0.6-0.6-0.9-1c-1.4-1.6-1.2-1.3,0.7,1c-0.8,0-3-5-3.4-5.7     c-2.2-3.9,1.1,4.2,0-0.1c-0.3-1.1-0.7-2.1-0.9-3.2c-0.9-3.9-0.6,0.4-0.1,0.6c-0.4-0.2-0.2-3.7-0.2-4.1c0-1.1,0-2.3,0-3.4     c0-48.1,0-96.1,0-144.2c0-13.6,0-27.2,0-40.8c0-10.5-9.2-20.5-20-20c-10.8,0.5-20,8.8-20,20c0,43.3,0,86.6,0,129.8     c0,18.9,0,37.9,0,56.8c0.1,33,25.7,60.2,59.1,60.4c24.7,0.1,49.4,0,74.1,0c50.7,0,101.5,0,152.2,0c58.5,0,117,0,175.5,0     c48.1,0,96.1,0,144.2,0c14.4,0,28.8,0,43.2,0c6.8,0,13.7,0.4,20.4-0.4c28.9-3.5,50.9-26.3,53.1-55.4c0.1-2,0.1-4,0.1-6     c0-8.8,0-17.7,0-26.5c0-38.5,0-77,0-115.6c0-55.1,0-110.3,0-165.4c0-58.3,0-116.6,0-174.9c0-48,0-96.1,0-144.1     c0-24.3,0-48.7,0-73c0-5.8-0.4-11.6-2-17.2c-6.8-25.4-31-42.1-56.7-42.5c-5.5-0.1-11.1,0-16.7,0c-36.8,0-73.6,0-110.4,0     c-55.9,0-111.7,0-167.6,0c-56.7,0-113.3,0-170,0c-39.3,0-78.5,0-117.8,0c-7.4,0-14.8,0-22.2,0c-16.3,0.1-33,6.5-43.9,18.9     c-10.3,11.8-14.9,25.7-14.9,41.2c0,48.5,0,97,0,145.5c0,13.8,0,27.6,0,41.4c0,10.5,9.2,20.5,20,20C232.8,367.5,242,359.2,242,348     L242,348z"/></g></g><g><g><path d="M455.6,332.9c21.7,21.7,43.5,43.5,65.2,65.2c34.7,34.7,69.3,69.3,104,104c7.9,7.9,15.9,15.9,23.8,23.8     c0-9.4,0-18.9,0-28.3c-21.7,21.7-43.5,43.5-65.2,65.2c-34.7,34.7-69.3,69.3-104,104c-7.9,7.9-15.9,15.9-23.8,23.8     c-7.4,7.4-8,21,0,28.3c8,7.3,20.4,7.9,28.3,0c21.7-21.7,43.5-43.5,65.2-65.2c34.7-34.7,69.3-69.3,104-104     c7.9-7.9,15.9-15.9,23.8-23.8c7.6-7.6,7.7-20.6,0-28.3c-21.7-21.7-43.5-43.5-65.2-65.2c-34.7-34.7-69.3-69.3-104-104     c-7.9-7.9-15.9-15.9-23.8-23.8c-7.4-7.4-21-8-28.3,0C448.3,312.6,447.7,325,455.6,332.9L455.6,332.9z"/></g></g><g><g><path d="M120,531.8c18,0,35.9,0,53.9,0c43.2,0,86.3,0,129.5,0c52.2,0,104.5,0,156.7,0c45.2,0,90.4,0,135.6,0     c22,0,44.1,0.5,66.1,0c0.3,0,0.6,0,0.9,0c10.5,0,20.5-9.2,20-20c-0.5-10.8-8.8-20-20-20c-18,0-35.9,0-53.9,0     c-43.2,0-86.3,0-129.5,0c-52.2,0-104.5,0-156.7,0c-45.2,0-90.4,0-135.6,0c-22,0-44.1-0.5-66.1,0c-0.3,0-0.6,0-0.9,0     c-10.5,0-20.5,9.2-20,20C100.5,522.6,108.8,531.8,120,531.8L120,531.8z"/></g></g></g><text x="0" y="1039" fill="#000000" font-size="5px" font-weight="bold" font-family="'Helvetica Neue', Helvetica, Arial-Unicode, Arial, Sans-serif">Created by shashank singh</text><text x="0" y="1044" fill="#000000" font-size="5px" font-weight="bold" font-family="'Helvetica Neue', Helvetica, Arial-Unicode, Arial, Sans-serif">from the Noun Project</text></svg>